<svg xmlns="http://www.w3.org/2000/svg" viewBox="0 0 68.47 69.29"><path d="M10.6,17.69V10.94h6.76L40.91,34.51v6.76H34.16Z" transform="translate(-10.6 -10.94)"/><path d="M48.77,41.27V34.51L72.32,10.94h6.76v6.75L55.52,41.27Z" transform="translate(-10.6 -10.94)"/><path d="M72.32,80.23,48.77,56.65V49.89h6.75L79.08,73.47v6.76Z" transform="translate(-10.6 -10.94)"/><path d="M10.6,80.23V73.47L34.16,49.89h6.75v6.76L17.36,80.23Z" transform="translate(-10.6 -10.94)"/><path d="M46.49,41.77h-3a1.8,1.8,0,0,0-1.55.9l-1.49,2.58a1.81,1.81,0,0,0,0,1.8L42,49.62a1.78,1.78,0,0,0,1.55.9h3a1.78,1.78,0,0,0,1.55-.9l1.49-2.57a1.81,1.81,0,0,0,0-1.8L48,42.67A1.8,1.8,0,0,0,46.49,41.77Z" transform="translate(-10.6 -10.94)"/></svg>