<svg xmlns="http://www.w3.org/2000/svg" xmlns:xlink="http://www.w3.org/1999/xlink" viewBox="0 0 30 30"><path  id="staff-career-icon-special" d="M29.116,28.057 C28.428,27.707 27.740,27.356 27.049,27.010 C26.982,26.976 26.899,26.956 26.823,26.956 C19.138,26.953 11.452,26.953 3.767,26.956 C3.687,26.956 3.599,26.978 3.528,27.014 C2.687,27.437 1.849,27.864 1.010,28.290 C0.974,28.308 0.936,28.322 0.899,28.338 C0.895,28.329 0.890,28.320 0.885,28.311 C1.213,28.040 1.540,27.768 1.868,27.496 C2.320,27.123 2.773,26.752 3.220,26.374 C3.293,26.314 3.351,26.228 3.394,26.142 C4.493,23.978 5.590,21.813 6.682,19.646 C6.739,19.534 6.800,19.493 6.927,19.494 C7.658,19.501 8.388,19.498 9.119,19.498 C9.168,19.498 9.218,19.498 9.299,19.498 C8.461,21.152 7.637,22.780 6.803,24.428 C12.449,24.428 18.076,24.428 23.725,24.428 C23.394,23.771 23.068,23.126 22.730,22.458 C22.799,22.454 22.847,22.449 22.895,22.449 C23.635,22.448 24.375,22.451 25.115,22.446 C25.223,22.445 25.280,22.476 25.330,22.576 C25.913,23.736 26.499,24.894 27.089,26.049 C27.142,26.154 27.221,26.255 27.311,26.330 C28.069,26.965 28.833,27.593 29.594,28.223 C29.636,28.257 29.676,28.292 29.699,28.352 C29.505,28.254 29.311,28.155 29.116,28.057 ZM16.208,19.791 C16.588,19.038 16.971,18.286 17.348,17.532 C17.393,17.441 17.449,17.417 17.544,17.417 C18.359,17.421 19.174,17.419 19.989,17.419 C20.040,17.419 20.091,17.419 20.177,17.419 C18.538,14.184 16.911,10.970 15.265,7.719 C14.119,9.983 12.989,12.214 11.845,14.473 C13.176,14.473 14.479,14.473 15.811,14.473 C15.666,14.762 15.535,15.024 15.402,15.286 C15.135,15.813 14.866,16.338 14.603,16.866 C14.559,16.954 14.509,16.986 14.410,16.986 C12.335,16.983 10.261,16.984 8.186,16.983 C8.145,16.983 8.105,16.978 8.042,16.974 C8.158,16.743 8.266,16.527 8.375,16.311 C10.282,12.545 12.189,8.778 14.096,5.012 C14.314,4.581 14.518,4.142 14.756,3.723 C14.917,3.439 14.970,3.142 14.997,2.827 C15.072,1.944 15.157,1.062 15.238,0.180 C15.241,0.141 15.251,0.102 15.282,0.065 C15.310,0.370 15.338,0.674 15.367,0.979 C15.437,1.745 15.508,2.510 15.581,3.275 C15.586,3.325 15.604,3.376 15.627,3.420 C17.997,8.103 20.368,12.784 22.739,17.466 C23.131,18.239 23.522,19.013 23.913,19.787 C23.934,19.827 23.952,19.868 23.978,19.923 C21.364,19.923 18.771,19.923 16.155,19.923 C16.175,19.871 16.188,19.829 16.208,19.791 Z"></path></svg>