<svg xmlns="http://www.w3.org/2000/svg" xmlns:xlink="http://www.w3.org/1999/xlink" viewBox="0 0 30 30"><path  id="staff-career-icon-warrior" d="M30.032,27.175 C28.608,23.640 27.184,20.106 25.759,16.572 C25.769,16.565 25.778,16.558 25.788,16.551 C26.864,17.719 27.940,18.886 29.046,20.087 C29.379,17.012 29.707,13.980 30.035,10.947 C30.044,10.948 30.053,10.948 30.062,10.949 C30.062,16.356 30.062,21.763 30.062,27.171 C30.052,27.172 30.042,27.173 30.032,27.175 ZM28.906,28.538 C28.922,28.570 28.936,28.603 28.968,28.672 C28.295,28.331 27.661,28.009 27.027,27.687 C25.621,26.973 24.214,26.261 22.810,25.544 C22.739,25.508 22.672,25.445 22.630,25.378 C22.224,24.743 21.826,24.104 21.421,23.469 C21.354,23.363 21.275,23.263 21.186,23.175 C17.670,19.673 14.152,16.172 10.634,12.672 C9.519,11.562 8.405,10.452 7.288,9.345 C7.216,9.273 7.184,9.202 7.185,9.099 C7.190,8.608 7.187,8.117 7.187,7.626 C7.187,7.585 7.187,7.544 7.187,7.504 C7.197,7.498 7.208,7.492 7.219,7.485 C11.416,11.663 15.613,15.840 19.807,20.014 C19.951,19.866 20.084,19.729 20.234,19.574 C16.051,15.410 11.852,11.231 7.639,7.038 C7.683,7.029 7.712,7.019 7.740,7.018 C8.269,7.017 8.799,7.015 9.328,7.022 C9.392,7.023 9.469,7.066 9.517,7.113 C10.979,8.564 12.438,10.019 13.898,11.472 C17.091,14.649 20.281,17.828 23.481,20.998 C23.669,21.185 23.924,21.307 24.154,21.451 C24.649,21.762 25.149,22.066 25.644,22.379 C25.711,22.421 25.774,22.487 25.810,22.557 C26.845,24.550 27.875,26.544 28.906,28.538 ZM10.712,6.093 C9.278,6.089 7.845,6.090 6.411,6.090 C6.352,6.090 6.292,6.090 6.217,6.090 C6.217,7.644 6.217,9.181 6.217,10.730 C5.573,10.730 4.944,10.730 4.297,10.730 C4.297,10.663 4.297,10.604 4.297,10.544 C4.297,8.986 4.297,7.428 4.299,5.871 C4.299,5.770 4.273,5.696 4.200,5.623 C3.053,4.486 1.908,3.346 0.763,2.208 C0.724,2.170 0.676,2.142 0.633,2.110 C0.633,2.100 0.633,2.091 0.633,2.082 C1.148,1.567 1.664,1.052 2.179,0.538 C2.189,0.538 2.198,0.538 2.208,0.538 C2.235,0.574 2.258,0.614 2.289,0.646 C3.430,1.783 4.572,2.918 5.710,4.057 C5.800,4.147 5.889,4.185 6.016,4.184 C7.577,4.180 9.137,4.182 10.697,4.182 C10.752,4.182 10.808,4.182 10.876,4.182 C10.880,4.232 10.885,4.272 10.885,4.313 C10.886,4.851 10.881,5.389 10.889,5.926 C10.892,6.069 10.841,6.093 10.712,6.093 ZM14.658,29.365 C15.504,29.274 16.351,29.185 17.198,29.094 C17.938,29.015 18.678,28.933 19.417,28.853 C19.678,28.825 19.938,28.799 20.199,28.771 C20.230,28.768 20.261,28.761 20.326,28.750 C19.133,27.661 17.960,26.591 16.787,25.521 C16.792,25.511 16.796,25.501 16.800,25.492 C16.844,25.506 16.888,25.519 16.930,25.536 C20.404,26.923 23.877,28.309 27.350,29.698 C27.399,29.717 27.439,29.760 27.483,29.791 C21.991,29.791 16.499,29.791 11.007,29.791 C11.470,29.730 11.933,29.662 12.397,29.609 C13.150,29.522 13.904,29.445 14.658,29.365 Z"></path></svg>